<?xml version="1.0" encoding="utf-8"?>
<?xml-stylesheet type="text/xsl" href="rss1.xsl"?>
<rss version="2.0" xmlns:atom="http://www.w3.org/2005/Atom" xmlns:content="http://purl.org/rss/1.0/modules/content/" xmlns:dc="http://purl.org/dc/elements/1.1/" xmlns:media="http://search.yahoo.com/mrss/">
<channel>
 <title>Getty</title>
 <link>http://www.gettyimg.com/</link>
 <atom:link href="http://www.gettyimg.com/" rel="self" type="application/rss+xml" />

 
                <item>
                <title><![CDATA[【Singles (lossless)】FLAC - ARTBEAT v - DUBI DUBI (FLAC 24bits/96kHz)]]></title>
                <link><![CDATA[https://sharemania.us/threads/artbeat-v-dubi-dubi-flac-24bits-96khz.226131/]]></link>
                <description><![CDATA[<article>
<blockquote class="messageText SelectQuoteContainer ugc baseHtml">
<img src="https://images2.imgbox.com/30/3f/yabP0R7Z_o.jpg" class="bbCodeImage LbImage" alt="[​IMG]" data-url="https://images2.imgbox.com/30/3f/yabP0R7Z_o.jpg" style=""> <br>
<br>
"<b>Dubi Dubi</b>" is the first single album by <a href="https://kpop.fandom.com/wiki/ARTBEAT_v" target="_blank" class="externalLink" rel="nofollow">ARTBEAT v</a>. It was released on August 10, 2023.<br>
<br>
<div class="bbCodeBlock bbCodeCode">
<div class="type">Code:</div>
<pre>Track list
"Dubi Dubi" - 3:01
"Dubi Dubi (Inst.)" - 3:01
"Dubi Dubi (Sped Up)" - 2:41</pre>
</div><div data-s9e-mediaembed="youtube" style="display:inline-block;width:100%;max-width:640px"><div style="overflow:hidden;position:relative;padding-bottom:56.25%"><iframe allowfullscreen="" scrolling="no" style="background:url(https://i.ytimg.com/vi/AhzM94SLQFc/hqdefault.jpg) 50% 50% / cover;border:0;height:100%;left:0;position:absolute;width:100%" src="https://www.youtube.com/embed/AhzM94SLQFc"></iframe></div></div><br>
<br>
<div class="bbCodeBlock bbCodeVfcHH HiddenContent">
<div class="attribution type">Hidden Content:</div>
<blockquote>You must either reply or click 'Like' to see the hidden information contained here.</blockquote>
</div>
<div class="messageTextEndMarker">&nbsp;</div>
</blockquote>
</article>]]></description>
                <author><![CDATA[Eric Lyn]]></author>
                </item>

                
                <item>
                <title><![CDATA[【Apple Music】WEB-RiP - TOMORROW X TOGETHER &amp; Jonas Brothers - Do It Like That (Apple Music 1080p)]]></title>
                <link><![CDATA[https://sharemania.us/threads/tomorrow-x-together-jonas-brothers-do-it-like-that-apple-music-1080p.226132/]]></link>
                <description><![CDATA[<article>
<blockquote class="messageText SelectQuoteContainer ugc baseHtml">
<img src="https://images2.imgbox.com/74/e7/PSPBFMzf_o.jpg" class="bbCodeImage LbImage" alt="[​IMG]" data-url="https://images2.imgbox.com/74/e7/PSPBFMzf_o.jpg" style=""> <br>
<br>
<div data-s9e-mediaembed="youtube" style="display:inline-block;width:100%;max-width:640px"><div style="overflow:hidden;position:relative;padding-bottom:56.25%"><iframe allowfullscreen="" scrolling="no" style="background:url(https://i.ytimg.com/vi/C0EYKxF1oTI/hqdefault.jpg) 50% 50% / cover;border:0;height:100%;left:0;position:absolute;width:100%" src="https://www.youtube.com/embed/C0EYKxF1oTI"></iframe></div></div><br>
<br>
<br>
<div class="ToggleTriggerAnchor bbCodeSpoilerContainer">
<button type="button" class="button bbCodeSpoilerButton ToggleTrigger Tooltip JsOnly" data-target="> .SpoilerTarget"><span>Spoiler: <span class="SpoilerTitle">Media info</span></span></button>
<div class="SpoilerTarget bbCodeSpoilerText">Format : MPEG-4<br>
Codec ID : M4V (isom/iso4/M4V /mp42)<br>
File size : 123 MiB<br>
Duration : 2 min 27 s<br>
Overall bit rate mode : Variable<br>
Overall bit rate : 6 988 kb/s<br>
Frame rate : 23.976 FPS<br>
Movie name : Do It Like That<br>
Performer : TOMORROW X TOGETHER &amp; Jonas Brothers<br>
Genre : Pop<br>
ContentType : Music Video<br>
Recorded date : 2023-07-07 07:00:00 UTC<br>
Encoded date : 2023-07-08 22:34:47 UTC<br>
Tagged date : 2023-07-08 22:34:47 UTC<br>
Copyright : ℗ 2023 BIGHIT MUSIC<br>
Cover : Yes<br>
Rating : None<br>
GenreID : 1614<br>
AppleStoreCountry : United States<br>
AlbumTitleID : 1454642552<br>
AppleStoreCatalogID : 1696344054<br>
<br>
Video<br>
ID : 2<br>
Format : AVC<br>
Format/Info : Advanced Video Codec<br>
Format profile : High@L4<br>
Format settings : CABAC / 4 Ref Frames<br>
Format settings, CABAC : Yes<br>
Format settings, Reference : 4 frames<br>
Codec ID : avc1<br>
Codec ID/Info : Advanced Video Coding<br>
Duration : 2 min 27 s<br>
Bit rate : 6 695 kb/s<br>
Maximum bit rate : 14.2 Mb/s<br>
Width : 1 920 pixels<br>
Height : 1 080 pixels<br>
Display aspect ratio : 16:9<br>
Frame rate mode : Constant<br>
Frame rate : 23.976 (24000/1001) FPS<br>
Color space : YUV<br>
Chroma subsampling : 4:2:0<br>
Bit depth : 8 bits<br>
Scan type : Progressive<br>
Bits/(Pixel*Frame) : 0.135<br>
Stream size : 118 MiB (96%)<br>
Title : Core Media Video<br>
Encoded date : 2023-07-07 20:35:48 UTC<br>
Tagged date : 2023-07-08 22:34:48 UTC<br>
Color range : Limited<br>
Color primaries : BT.709<br>
Transfer characteristics : BT.709<br>
Matrix coefficients : BT.709<br>
Codec configuration box : avcC<br>
<br>
Audio<br>
ID : 1<br>
Format : AAC LC<br>
Format/Info : Advanced Audio Codec Low Complexity<br>
Codec ID : mp4a-40-2<br>
Duration : 2 min 27 s<br>
Duration_LastFrame : -12 ms<br>
Bit rate mode : Variable<br>
Bit rate : 265 kb/s<br>
Maximum bit rate : 410 kb/s<br>
Channel(s) : 2 channels<br>
Channel layout : L R<br>
Sampling rate : 48.0 kHz<br>
Frame rate : 46.875 FPS (1024 SPF)<br>
Compression mode : Lossy<br>
Stream size : 4.59 MiB (4%)<br>
Title : Core Media Audio<br>
Encoded date : 2023-07-07 20:33:59 UTC<br>
Tagged date : 2023-07-08 22:34:48 UTC</div>
</div><br>
<div class="bbCodeBlock bbCodeVfcHH HiddenContent">
<div class="attribution type">Hidden Content:</div>
<blockquote>You must either reply or click 'Like' to see the hidden information contained here.</blockquote>
</div>
<div class="messageTextEndMarker">&nbsp;</div>
</blockquote>
</article>]]></description>
                <author><![CDATA[Eric Lyn]]></author>
                </item>

                </channel></rss>